<mxfile host="app.diagrams.net" agent="Mozilla/5.0 (X11; Linux x86_64) AppleWebKit/537.36 (KHTML, like Gecko) Chrome/137.0.0.0 Safari/537.36" version="27.1.6">
  <diagram name="PÃ¡gina-1" id="RvKqVgLNRi_vTCi7B7HT">
    <mxGraphModel dx="2072" dy="381" grid="1" gridSize="10" guides="1" tooltips="1" connect="1" arrows="1" fold="1" page="0" pageScale="1" pageWidth="827" pageHeight="1169" math="0" shadow="0">
      <root>
        <mxCell id="0" />
        <mxCell id="1" parent="0" />
        <mxCell id="yGk_z2xv6ygWbzXEIxgj-21" value="AWS Account" style="points=[[0,0],[0.25,0],[0.5,0],[0.75,0],[1,0],[1,0.25],[1,0.5],[1,0.75],[1,1],[0.75,1],[0.5,1],[0.25,1],[0,1],[0,0.75],[0,0.5],[0,0.25]];outlineConnect=0;gradientColor=none;html=1;whiteSpace=wrap;fontSize=12;fontStyle=0;container=1;pointerEvents=0;collapsible=0;recursiveResize=0;shape=mxgraph.aws4.group;grIcon=mxgraph.aws4.group_account;strokeColor=#CD2264;fillColor=none;verticalAlign=top;align=left;spacingLeft=30;fontColor=#CD2264;dashed=0;" parent="1" vertex="1">
          <mxGeometry x="-900" width="1130" height="470" as="geometry" />
        </mxCell>
        <mxCell id="yGk_z2xv6ygWbzXEIxgj-22" value="VPC" style="sketch=0;outlineConnect=0;gradientColor=none;html=1;whiteSpace=wrap;fontSize=12;fontStyle=0;shape=mxgraph.aws4.group;grIcon=mxgraph.aws4.group_vpc;strokeColor=#879196;fillColor=none;verticalAlign=top;align=left;spacingLeft=30;fontColor=#879196;dashed=0;" parent="yGk_z2xv6ygWbzXEIxgj-21" vertex="1">
          <mxGeometry x="20" y="20" width="1100" height="430" as="geometry" />
        </mxCell>
        <mxCell id="yGk_z2xv6ygWbzXEIxgj-24" value="Subnet" style="sketch=0;outlineConnect=0;gradientColor=none;html=1;whiteSpace=wrap;fontSize=12;fontStyle=0;shape=mxgraph.aws4.group;grIcon=mxgraph.aws4.group_subnet;strokeColor=#879196;fillColor=none;verticalAlign=top;align=left;spacingLeft=30;fontColor=#879196;dashed=0;" parent="1" vertex="1">
          <mxGeometry x="-860" y="30" width="1070" height="410" as="geometry" />
        </mxCell>
        <mxCell id="yGk_z2xv6ygWbzXEIxgj-27" style="edgeStyle=orthogonalEdgeStyle;rounded=0;orthogonalLoop=1;jettySize=auto;html=1;" parent="1" source="yGk_z2xv6ygWbzXEIxgj-25" target="yGk_z2xv6ygWbzXEIxgj-26" edge="1">
          <mxGeometry relative="1" as="geometry" />
        </mxCell>
        <mxCell id="yGk_z2xv6ygWbzXEIxgj-25" value="" style="sketch=0;points=[[0,0,0],[0.25,0,0],[0.5,0,0],[0.75,0,0],[1,0,0],[0,1,0],[0.25,1,0],[0.5,1,0],[0.75,1,0],[1,1,0],[0,0.25,0],[0,0.5,0],[0,0.75,0],[1,0.25,0],[1,0.5,0],[1,0.75,0]];outlineConnect=0;fontColor=#232F3E;fillColor=#8C4FFF;strokeColor=#ffffff;dashed=0;verticalLabelPosition=bottom;verticalAlign=top;align=center;html=1;fontSize=12;fontStyle=0;aspect=fixed;shape=mxgraph.aws4.resourceIcon;resIcon=mxgraph.aws4.cloudfront;" parent="1" vertex="1">
          <mxGeometry x="-840" y="120" width="40" height="40" as="geometry" />
        </mxCell>
        <mxCell id="yGk_z2xv6ygWbzXEIxgj-82" style="edgeStyle=orthogonalEdgeStyle;rounded=0;orthogonalLoop=1;jettySize=auto;html=1;" parent="1" source="yGk_z2xv6ygWbzXEIxgj-26" target="yGk_z2xv6ygWbzXEIxgj-81" edge="1">
          <mxGeometry relative="1" as="geometry" />
        </mxCell>
        <mxCell id="yGk_z2xv6ygWbzXEIxgj-26" value="WAF" style="sketch=0;points=[[0,0,0],[0.25,0,0],[0.5,0,0],[0.75,0,0],[1,0,0],[0,1,0],[0.25,1,0],[0.5,1,0],[0.75,1,0],[1,1,0],[0,0.25,0],[0,0.5,0],[0,0.75,0],[1,0.25,0],[1,0.5,0],[1,0.75,0]];outlineConnect=0;fontColor=#232F3E;fillColor=#DD344C;strokeColor=#ffffff;dashed=0;verticalLabelPosition=bottom;verticalAlign=top;align=center;html=1;fontSize=12;fontStyle=0;aspect=fixed;shape=mxgraph.aws4.resourceIcon;resIcon=mxgraph.aws4.waf;" parent="1" vertex="1">
          <mxGeometry x="-840" y="232" width="40" height="40" as="geometry" />
        </mxCell>
        <mxCell id="yGk_z2xv6ygWbzXEIxgj-34" value="ECS" style="points=[[0,0],[0.25,0],[0.5,0],[0.75,0],[1,0],[1,0.25],[1,0.5],[1,0.75],[1,1],[0.75,1],[0.5,1],[0.25,1],[0,1],[0,0.75],[0,0.5],[0,0.25]];outlineConnect=0;gradientColor=none;html=1;whiteSpace=wrap;fontSize=12;fontStyle=0;container=1;pointerEvents=0;collapsible=0;recursiveResize=0;shape=mxgraph.aws4.group;grIcon=mxgraph.aws4.group_ec2_instance_contents;strokeColor=#D86613;fillColor=none;verticalAlign=top;align=left;spacingLeft=30;fontColor=#D86613;dashed=0;" parent="1" vertex="1">
          <mxGeometry x="-480" y="80" width="220" height="350" as="geometry" />
        </mxCell>
        <mxCell id="yGk_z2xv6ygWbzXEIxgj-37" value="" style="outlineConnect=0;dashed=0;verticalLabelPosition=bottom;verticalAlign=top;align=center;html=1;shape=mxgraph.aws3.ec2;fillColor=#F58534;gradientColor=none;" parent="yGk_z2xv6ygWbzXEIxgj-34" vertex="1">
          <mxGeometry width="30" height="33" as="geometry" />
        </mxCell>
        <mxCell id="yGk_z2xv6ygWbzXEIxgj-39" value="event" style="points=[];aspect=fixed;html=1;align=center;shadow=0;dashed=0;fillColor=#FF6A00;strokeColor=none;shape=mxgraph.alibaba_cloud.ecs_elastic_compute_service;" parent="yGk_z2xv6ygWbzXEIxgj-34" vertex="1">
          <mxGeometry x="120" y="10" width="48.6" height="45.3" as="geometry" />
        </mxCell>
        <mxCell id="yGk_z2xv6ygWbzXEIxgj-41" value="product" style="points=[];aspect=fixed;html=1;align=center;shadow=0;dashed=0;fillColor=#FF6A00;strokeColor=none;shape=mxgraph.alibaba_cloud.ecs_elastic_compute_service;" parent="yGk_z2xv6ygWbzXEIxgj-34" vertex="1">
          <mxGeometry x="120" y="80" width="48.6" height="45.3" as="geometry" />
        </mxCell>
        <mxCell id="yGk_z2xv6ygWbzXEIxgj-51" value="payment" style="points=[];aspect=fixed;html=1;align=center;shadow=0;dashed=0;fillColor=#FF6A00;strokeColor=none;shape=mxgraph.alibaba_cloud.ecs_elastic_compute_service;" parent="yGk_z2xv6ygWbzXEIxgj-34" vertex="1">
          <mxGeometry x="120" y="220" width="48.6" height="45.3" as="geometry" />
        </mxCell>
        <mxCell id="pcAcpQHrKHYxJ7-ddnpO-1" value="Autoscaling" style="sketch=0;outlineConnect=0;fontColor=#232F3E;gradientColor=none;fillColor=#ED7100;strokeColor=none;dashed=0;verticalLabelPosition=bottom;verticalAlign=top;align=center;html=1;fontSize=12;fontStyle=0;aspect=fixed;pointerEvents=1;shape=mxgraph.aws4.auto_scaling2;" vertex="1" parent="yGk_z2xv6ygWbzXEIxgj-34">
          <mxGeometry x="189" y="-20" width="42" height="42" as="geometry" />
        </mxCell>
        <mxCell id="yGk_z2xv6ygWbzXEIxgj-36" value="PostgreSQL" style="outlineConnect=0;dashed=0;verticalLabelPosition=bottom;verticalAlign=top;align=center;html=1;shape=mxgraph.aws3.rds;fillColor=#2E73B8;gradientColor=none;" parent="1" vertex="1">
          <mxGeometry x="-160" y="87.65" width="40" height="50" as="geometry" />
        </mxCell>
        <mxCell id="yGk_z2xv6ygWbzXEIxgj-61" style="edgeStyle=orthogonalEdgeStyle;rounded=0;orthogonalLoop=1;jettySize=auto;html=1;" parent="1" source="yGk_z2xv6ygWbzXEIxgj-38" target="yGk_z2xv6ygWbzXEIxgj-36" edge="1">
          <mxGeometry relative="1" as="geometry" />
        </mxCell>
        <mxCell id="yGk_z2xv6ygWbzXEIxgj-38" value="user" style="points=[];aspect=fixed;html=1;align=center;shadow=0;dashed=0;fillColor=#FF6A00;strokeColor=none;shape=mxgraph.alibaba_cloud.ecs_elastic_compute_service;" parent="1" vertex="1">
          <mxGeometry x="-460" y="190" width="48.6" height="45.3" as="geometry" />
        </mxCell>
        <mxCell id="yGk_z2xv6ygWbzXEIxgj-40" style="edgeStyle=orthogonalEdgeStyle;rounded=0;orthogonalLoop=1;jettySize=auto;html=1;" parent="1" source="yGk_z2xv6ygWbzXEIxgj-39" target="yGk_z2xv6ygWbzXEIxgj-38" edge="1">
          <mxGeometry relative="1" as="geometry" />
        </mxCell>
        <mxCell id="yGk_z2xv6ygWbzXEIxgj-44" style="edgeStyle=orthogonalEdgeStyle;rounded=0;orthogonalLoop=1;jettySize=auto;html=1;entryX=0.494;entryY=0.022;entryDx=0;entryDy=0;entryPerimeter=0;" parent="1" source="yGk_z2xv6ygWbzXEIxgj-41" target="yGk_z2xv6ygWbzXEIxgj-38" edge="1">
          <mxGeometry relative="1" as="geometry" />
        </mxCell>
        <mxCell id="yGk_z2xv6ygWbzXEIxgj-72" style="edgeStyle=orthogonalEdgeStyle;rounded=0;orthogonalLoop=1;jettySize=auto;html=1;" parent="1" source="yGk_z2xv6ygWbzXEIxgj-45" target="yGk_z2xv6ygWbzXEIxgj-67" edge="1">
          <mxGeometry relative="1" as="geometry" />
        </mxCell>
        <mxCell id="yGk_z2xv6ygWbzXEIxgj-45" value="ticket" style="points=[];aspect=fixed;html=1;align=center;shadow=0;dashed=0;fillColor=#FF6A00;strokeColor=none;shape=mxgraph.alibaba_cloud.ecs_elastic_compute_service;" parent="1" vertex="1">
          <mxGeometry x="-360" y="230" width="48.6" height="45.3" as="geometry" />
        </mxCell>
        <mxCell id="yGk_z2xv6ygWbzXEIxgj-50" style="edgeStyle=orthogonalEdgeStyle;rounded=0;orthogonalLoop=1;jettySize=auto;html=1;" parent="1" source="yGk_z2xv6ygWbzXEIxgj-49" target="yGk_z2xv6ygWbzXEIxgj-38" edge="1">
          <mxGeometry relative="1" as="geometry" />
        </mxCell>
        <mxCell id="yGk_z2xv6ygWbzXEIxgj-49" value="order" style="points=[];aspect=fixed;html=1;align=center;shadow=0;dashed=0;fillColor=#FF6A00;strokeColor=none;shape=mxgraph.alibaba_cloud.ecs_elastic_compute_service;" parent="1" vertex="1">
          <mxGeometry x="-460" y="300" width="48.6" height="45.3" as="geometry" />
        </mxCell>
        <mxCell id="yGk_z2xv6ygWbzXEIxgj-52" style="edgeStyle=orthogonalEdgeStyle;rounded=0;orthogonalLoop=1;jettySize=auto;html=1;entryX=0.988;entryY=0.574;entryDx=0;entryDy=0;entryPerimeter=0;" parent="1" source="yGk_z2xv6ygWbzXEIxgj-51" target="yGk_z2xv6ygWbzXEIxgj-38" edge="1">
          <mxGeometry relative="1" as="geometry" />
        </mxCell>
        <mxCell id="yGk_z2xv6ygWbzXEIxgj-53" style="edgeStyle=orthogonalEdgeStyle;rounded=0;orthogonalLoop=1;jettySize=auto;html=1;entryX=1.049;entryY=0.574;entryDx=0;entryDy=0;entryPerimeter=0;" parent="1" source="yGk_z2xv6ygWbzXEIxgj-45" target="yGk_z2xv6ygWbzXEIxgj-38" edge="1">
          <mxGeometry relative="1" as="geometry" />
        </mxCell>
        <mxCell id="yGk_z2xv6ygWbzXEIxgj-56" style="edgeStyle=orthogonalEdgeStyle;rounded=0;orthogonalLoop=1;jettySize=auto;html=1;" parent="1" source="yGk_z2xv6ygWbzXEIxgj-39" target="yGk_z2xv6ygWbzXEIxgj-36" edge="1">
          <mxGeometry relative="1" as="geometry">
            <Array as="points">
              <mxPoint x="-336" y="150" />
              <mxPoint x="-140" y="150" />
            </Array>
          </mxGeometry>
        </mxCell>
        <mxCell id="yGk_z2xv6ygWbzXEIxgj-57" style="edgeStyle=orthogonalEdgeStyle;rounded=0;orthogonalLoop=1;jettySize=auto;html=1;" parent="1" source="yGk_z2xv6ygWbzXEIxgj-41" target="yGk_z2xv6ygWbzXEIxgj-36" edge="1">
          <mxGeometry relative="1" as="geometry" />
        </mxCell>
        <mxCell id="yGk_z2xv6ygWbzXEIxgj-58" style="edgeStyle=orthogonalEdgeStyle;rounded=0;orthogonalLoop=1;jettySize=auto;html=1;entryX=0;entryY=0.5;entryDx=0;entryDy=0;entryPerimeter=0;" parent="1" source="yGk_z2xv6ygWbzXEIxgj-45" target="yGk_z2xv6ygWbzXEIxgj-36" edge="1">
          <mxGeometry relative="1" as="geometry" />
        </mxCell>
        <mxCell id="yGk_z2xv6ygWbzXEIxgj-59" style="edgeStyle=orthogonalEdgeStyle;rounded=0;orthogonalLoop=1;jettySize=auto;html=1;entryX=0;entryY=0.5;entryDx=0;entryDy=0;entryPerimeter=0;" parent="1" source="yGk_z2xv6ygWbzXEIxgj-51" target="yGk_z2xv6ygWbzXEIxgj-36" edge="1">
          <mxGeometry relative="1" as="geometry" />
        </mxCell>
        <mxCell id="yGk_z2xv6ygWbzXEIxgj-62" style="edgeStyle=orthogonalEdgeStyle;rounded=0;orthogonalLoop=1;jettySize=auto;html=1;entryX=0;entryY=0.5;entryDx=0;entryDy=0;entryPerimeter=0;" parent="1" source="yGk_z2xv6ygWbzXEIxgj-49" target="yGk_z2xv6ygWbzXEIxgj-36" edge="1">
          <mxGeometry relative="1" as="geometry">
            <Array as="points">
              <mxPoint x="-436" y="360" />
              <mxPoint x="-240" y="360" />
              <mxPoint x="-240" y="113" />
            </Array>
          </mxGeometry>
        </mxCell>
        <mxCell id="yGk_z2xv6ygWbzXEIxgj-65" style="edgeStyle=orthogonalEdgeStyle;rounded=0;orthogonalLoop=1;jettySize=auto;html=1;" parent="1" source="yGk_z2xv6ygWbzXEIxgj-63" target="yGk_z2xv6ygWbzXEIxgj-36" edge="1">
          <mxGeometry relative="1" as="geometry">
            <Array as="points">
              <mxPoint x="-240" y="393" />
              <mxPoint x="-240" y="150" />
              <mxPoint x="-140" y="150" />
            </Array>
          </mxGeometry>
        </mxCell>
        <mxCell id="yGk_z2xv6ygWbzXEIxgj-66" style="edgeStyle=orthogonalEdgeStyle;rounded=0;orthogonalLoop=1;jettySize=auto;html=1;" parent="1" source="yGk_z2xv6ygWbzXEIxgj-63" target="yGk_z2xv6ygWbzXEIxgj-64" edge="1">
          <mxGeometry relative="1" as="geometry" />
        </mxCell>
        <mxCell id="yGk_z2xv6ygWbzXEIxgj-63" value="reservation" style="points=[];aspect=fixed;html=1;align=center;shadow=0;dashed=0;fillColor=#FF6A00;strokeColor=none;shape=mxgraph.alibaba_cloud.ecs_elastic_compute_service;" parent="1" vertex="1">
          <mxGeometry x="-360" y="370" width="48.6" height="45.3" as="geometry" />
        </mxCell>
        <mxCell id="yGk_z2xv6ygWbzXEIxgj-64" value="" style="sketch=0;points=[[0,0,0],[0.25,0,0],[0.5,0,0],[0.75,0,0],[1,0,0],[0,1,0],[0.25,1,0],[0.5,1,0],[0.75,1,0],[1,1,0],[0,0.25,0],[0,0.5,0],[0,0.75,0],[1,0.25,0],[1,0.5,0],[1,0.75,0]];outlineConnect=0;fontColor=#232F3E;fillColor=#E7157B;strokeColor=#ffffff;dashed=0;verticalLabelPosition=bottom;verticalAlign=top;align=center;html=1;fontSize=12;fontStyle=0;aspect=fixed;shape=mxgraph.aws4.resourceIcon;resIcon=mxgraph.aws4.sqs;" parent="1" vertex="1">
          <mxGeometry x="-172.7" y="372.65" width="40" height="40" as="geometry" />
        </mxCell>
        <mxCell id="yGk_z2xv6ygWbzXEIxgj-67" value="" style="sketch=0;points=[[0,0,0],[0.25,0,0],[0.5,0,0],[0.75,0,0],[1,0,0],[0,1,0],[0.25,1,0],[0.5,1,0],[0.75,1,0],[1,1,0],[0,0.25,0],[0,0.5,0],[0,0.75,0],[1,0.25,0],[1,0.5,0],[1,0.75,0]];outlineConnect=0;fontColor=#232F3E;fillColor=#7AA116;strokeColor=#ffffff;dashed=0;verticalLabelPosition=bottom;verticalAlign=top;align=center;html=1;fontSize=12;fontStyle=0;aspect=fixed;shape=mxgraph.aws4.resourceIcon;resIcon=mxgraph.aws4.s3;" parent="1" vertex="1">
          <mxGeometry x="-172.7" y="247.3" width="52.7" height="52.7" as="geometry" />
        </mxCell>
        <mxCell id="yGk_z2xv6ygWbzXEIxgj-71" style="edgeStyle=orthogonalEdgeStyle;rounded=0;orthogonalLoop=1;jettySize=auto;html=1;" parent="1" source="yGk_z2xv6ygWbzXEIxgj-51" target="yGk_z2xv6ygWbzXEIxgj-67" edge="1">
          <mxGeometry relative="1" as="geometry" />
        </mxCell>
        <mxCell id="yGk_z2xv6ygWbzXEIxgj-73" value="Monitoring / Observability / Security" style="points=[[0,0],[0.25,0],[0.5,0],[0.75,0],[1,0],[1,0.25],[1,0.5],[1,0.75],[1,1],[0.75,1],[0.5,1],[0.25,1],[0,1],[0,0.75],[0,0.5],[0,0.25]];outlineConnect=0;gradientColor=none;html=1;whiteSpace=wrap;fontSize=12;fontStyle=0;container=1;pointerEvents=0;collapsible=0;recursiveResize=0;shape=mxgraph.aws4.group;grIcon=mxgraph.aws4.group_account;strokeColor=#CD2264;fillColor=none;verticalAlign=top;align=left;spacingLeft=30;fontColor=#CD2264;dashed=0;" parent="1" vertex="1">
          <mxGeometry x="-80" y="80" width="280" height="340" as="geometry" />
        </mxCell>
        <mxCell id="yGk_z2xv6ygWbzXEIxgj-80" value="IAM" style="outlineConnect=0;dashed=0;verticalLabelPosition=bottom;verticalAlign=top;align=center;html=1;shape=mxgraph.aws3.iam;fillColor=#759C3E;gradientColor=none;" parent="yGk_z2xv6ygWbzXEIxgj-73" vertex="1">
          <mxGeometry x="182.5" y="137.45000000000002" width="30" height="57.85" as="geometry" />
        </mxCell>
        <mxCell id="yGk_z2xv6ygWbzXEIxgj-74" value="Cloudwatch" style="sketch=0;points=[[0,0,0],[0.25,0,0],[0.5,0,0],[0.75,0,0],[1,0,0],[0,1,0],[0.25,1,0],[0.5,1,0],[0.75,1,0],[1,1,0],[0,0.25,0],[0,0.5,0],[0,0.75,0],[1,0.25,0],[1,0.5,0],[1,0.75,0]];points=[[0,0,0],[0.25,0,0],[0.5,0,0],[0.75,0,0],[1,0,0],[0,1,0],[0.25,1,0],[0.5,1,0],[0.75,1,0],[1,1,0],[0,0.25,0],[0,0.5,0],[0,0.75,0],[1,0.25,0],[1,0.5,0],[1,0.75,0]];outlineConnect=0;fontColor=#232F3E;fillColor=#E7157B;strokeColor=#ffffff;dashed=0;verticalLabelPosition=bottom;verticalAlign=top;align=center;html=1;fontSize=12;fontStyle=0;aspect=fixed;shape=mxgraph.aws4.resourceIcon;resIcon=mxgraph.aws4.cloudwatch_2;" parent="1" vertex="1">
          <mxGeometry x="-40" y="120" width="50" height="50" as="geometry" />
        </mxCell>
        <mxCell id="yGk_z2xv6ygWbzXEIxgj-75" value="Alarms" style="sketch=0;outlineConnect=0;fontColor=#232F3E;gradientColor=none;fillColor=#E7157B;strokeColor=none;dashed=0;verticalLabelPosition=bottom;verticalAlign=top;align=center;html=1;fontSize=12;fontStyle=0;aspect=fixed;pointerEvents=1;shape=mxgraph.aws4.alarm;" parent="1" vertex="1">
          <mxGeometry x="90" y="120" width="55" height="55" as="geometry" />
        </mxCell>
        <mxCell id="yGk_z2xv6ygWbzXEIxgj-76" value="X - Ray" style="sketch=0;points=[[0,0,0],[0.25,0,0],[0.5,0,0],[0.75,0,0],[1,0,0],[0,1,0],[0.25,1,0],[0.5,1,0],[0.75,1,0],[1,1,0],[0,0.25,0],[0,0.5,0],[0,0.75,0],[1,0.25,0],[1,0.5,0],[1,0.75,0]];outlineConnect=0;fontColor=#232F3E;fillColor=#C925D1;strokeColor=#ffffff;dashed=0;verticalLabelPosition=bottom;verticalAlign=top;align=center;html=1;fontSize=12;fontStyle=0;aspect=fixed;shape=mxgraph.aws4.resourceIcon;resIcon=mxgraph.aws4.xray;" parent="1" vertex="1">
          <mxGeometry x="-40" y="217" width="53" height="53" as="geometry" />
        </mxCell>
        <mxCell id="yGk_z2xv6ygWbzXEIxgj-78" value="Certificate Manager" style="sketch=0;points=[[0,0,0],[0.25,0,0],[0.5,0,0],[0.75,0,0],[1,0,0],[0,1,0],[0.25,1,0],[0.5,1,0],[0.75,1,0],[1,1,0],[0,0.25,0],[0,0.5,0],[0,0.75,0],[1,0.25,0],[1,0.5,0],[1,0.75,0]];outlineConnect=0;fontColor=#232F3E;fillColor=#DD344C;strokeColor=#ffffff;dashed=0;verticalLabelPosition=bottom;verticalAlign=top;align=center;html=1;fontSize=12;fontStyle=0;aspect=fixed;shape=mxgraph.aws4.resourceIcon;resIcon=mxgraph.aws4.certificate_manager_3;" parent="1" vertex="1">
          <mxGeometry x="90" y="320" width="55.35" height="55.35" as="geometry" />
        </mxCell>
        <mxCell id="yGk_z2xv6ygWbzXEIxgj-79" value="Secrets Manager" style="sketch=0;points=[[0,0,0],[0.25,0,0],[0.5,0,0],[0.75,0,0],[1,0,0],[0,1,0],[0.25,1,0],[0.5,1,0],[0.75,1,0],[1,1,0],[0,0.25,0],[0,0.5,0],[0,0.75,0],[1,0.25,0],[1,0.5,0],[1,0.75,0]];outlineConnect=0;fontColor=#232F3E;fillColor=#DD344C;strokeColor=#ffffff;dashed=0;verticalLabelPosition=bottom;verticalAlign=top;align=center;html=1;fontSize=12;fontStyle=0;aspect=fixed;shape=mxgraph.aws4.resourceIcon;resIcon=mxgraph.aws4.secrets_manager;" parent="1" vertex="1">
          <mxGeometry x="-40" y="320" width="50" height="50" as="geometry" />
        </mxCell>
        <mxCell id="yGk_z2xv6ygWbzXEIxgj-81" value="API Gateway" style="sketch=0;points=[[0,0,0],[0.25,0,0],[0.5,0,0],[0.75,0,0],[1,0,0],[0,1,0],[0.25,1,0],[0.5,1,0],[0.75,1,0],[1,1,0],[0,0.25,0],[0,0.5,0],[0,0.75,0],[1,0.25,0],[1,0.5,0],[1,0.75,0]];outlineConnect=0;fontColor=#232F3E;fillColor=#8C4FFF;strokeColor=#ffffff;dashed=0;verticalLabelPosition=bottom;verticalAlign=top;align=center;html=1;fontSize=12;fontStyle=0;aspect=fixed;shape=mxgraph.aws4.resourceIcon;resIcon=mxgraph.aws4.api_gateway;" parent="1" vertex="1">
          <mxGeometry x="-720" y="232" width="40" height="40" as="geometry" />
        </mxCell>
        <mxCell id="yGk_z2xv6ygWbzXEIxgj-88" style="edgeStyle=orthogonalEdgeStyle;rounded=0;orthogonalLoop=1;jettySize=auto;html=1;entryX=0;entryY=0.5;entryDx=0;entryDy=0;" parent="1" source="yGk_z2xv6ygWbzXEIxgj-84" target="yGk_z2xv6ygWbzXEIxgj-34" edge="1">
          <mxGeometry relative="1" as="geometry" />
        </mxCell>
        <mxCell id="yGk_z2xv6ygWbzXEIxgj-84" value="&lt;div&gt;&lt;br&gt;&lt;/div&gt;&lt;div&gt;&lt;br&gt;&lt;/div&gt;&lt;div&gt;&lt;br&gt;&lt;/div&gt;&lt;div&gt;&lt;br&gt;&lt;/div&gt;&lt;div&gt;&lt;br&gt;&lt;/div&gt;&lt;div&gt;ALB&lt;/div&gt;" style="points=[];aspect=fixed;html=1;align=center;shadow=0;dashed=0;fillColor=#FF6A00;strokeColor=none;shape=mxgraph.alibaba_cloud.alb_application_load_balancer_02;" parent="1" vertex="1">
          <mxGeometry x="-590" y="232.5" width="45" height="45" as="geometry" />
        </mxCell>
        <mxCell id="yGk_z2xv6ygWbzXEIxgj-86" style="edgeStyle=orthogonalEdgeStyle;rounded=0;orthogonalLoop=1;jettySize=auto;html=1;entryX=-0.067;entryY=0.444;entryDx=0;entryDy=0;entryPerimeter=0;" parent="1" source="yGk_z2xv6ygWbzXEIxgj-81" target="yGk_z2xv6ygWbzXEIxgj-84" edge="1">
          <mxGeometry relative="1" as="geometry" />
        </mxCell>
      </root>
    </mxGraphModel>
  </diagram>
</mxfile>
